# xmcd
#
# Track frame offsets:
# 150
# 12988
# 24008
# 37028
# 50273
# 62623
# 77360
# 89578
# 102113
# 113685
# 127220
# 139980
# 154250
# 166845
# 178430
# 193003
#
# Disc length: 2779 seconds
#
# Revision: 2
# Processed by: cddbd v1.5.1PL0 Copyright (c) Steve Scherf et al.
# Submitted via: inCDius 2.0b9
#
DISCID=d10ad910
DTITLE=Muddy Waters - Muddy Waters (Mississippi)
DYEAR=1900
DGENRE=
TTITLE0=Forty days and forty nights
TTITLE1=I can't call her sugar
TTITLE2=You can't loose what you never had
TTITLE3=Sad letter
TTITLE4=I can't be satisfied
TTITLE5=Baby please don't go
TTITLE6=Walkin' thru the park
TTITLE7=Trainfare blues
TTITLE8=Settin' here drinkin'
TTITLE9=I got a rich man's woman
TTITLE10=Mean mistreater
TTITLE11=You gonna need my help
TTITLE12=The stuff you gotta watch
TTITLE13=You gonna miss me
TTITLE14=Rock me
TTITLE15=Iodine in my coffee
EXTD=Stereo 58348-2
EXTT0=
EXTT1=
EXTT2=
EXTT3=
EXTT4=
EXTT5=
EXTT6=
EXTT7=
EXTT8=
EXTT9=
EXTT10=
EXTT11=
EXTT12=
EXTT13=
EXTT14=
EXTT15=
PLAYORDER=
